# Made in Blockbench 5.0.7
mtllib ted.mtl

o beveled_cuboid
v 0.5 0.125 -0.375
v 0.375 0.5 -0.375
v 0.375 0.5 0.375
v 0.375 0.375 0.5
v 0.375 0.375 -0.5
v -0.5 0.125 -0.375
v -0.375 0.125 -0.5
v 0.375 0 -0.375
v 0.5 0.125 0.375
v -0.375 0 0.375
v -0.375 0.5 0.375
v -0.375 0.5 -0.375
v -0.5 0.375 0.375
v -0.5 0.375 -0.375
v 0.375 0.125 -0.5
v -0.5 0.125 0.375
v -0.375 0.375 0.5
v -0.375 0.125 0.5
v 0.375 0 0.375
v 0.5 0.375 -0.375
v -0.375 0.375 -0.5
v -0.375 0 -0.375
v 0.5 0.375 0.375
v 0.375 0.125 0.5
vt 0.4296875 0.6875
vt 0.4296875 0.64330578125
vt 0.46796046875 0.6654025
vt 0.265625 0.5625
vt 0.265625 0.5
vt 0.3125 0.5
vt 0.3125 0.5625
vt 0.390625 0.5
vt 0.4375 0.5
vt 0.4375 0.5625
vt 0.390625 0.5625
vt 0.40625 0.8125
vt 0.40625 0.765625
vt 0.59375 0.765625
vt 0.59375 0.8125
vt 0.1875 0.8125
vt 0.1875 1
vt 0 1
vt 0 0.8125
vt 0.59375 0.828125
vt 0.59375 0.875
vt 0.40625 0.875
vt 0.40625 0.828125
vt 0.4453125 0.953125
vt 0.4453125 0.99731921875
vt 0.40703953125 0.9752225
vt 0.4296875 0.64330625
vt 0.4296875 0.6875
vt 0.2421875 0.6875
vt 0.2421875 0.64330625
vt 0.390625 0.78125
vt 0.390625 0.84375
vt 0.203125 0.84375
vt 0.203125 0.78125
vt 0.328125 0.5625
vt 0.328125 0.5
vt 0.375 0.5
vt 0.375 0.5625
vt 0.390625 1
vt 0.203125 1
vt 0.203125 0.9375
vt 0.390625 0.9375
vt 0.390625 0.765625
vt 0.203125 0.765625
vt 0.203125 0.703125
vt 0.390625 0.703125
vt 0.1875 0.59375
vt 0 0.59375
vt 0 0.546875
vt 0.1875 0.546875
vt 0.4296875 0.625
vt 0.2421875 0.625
vt 0.2421875 0.58080625
vt 0.4296875 0.58080625
vt 0.4453125 0.93481875
vt 0.4453125 0.890625
vt 0.6328125 0.890625
vt 0.6328125 0.93481875
vt 0.390625 0.859375
vt 0.390625 0.921875
vt 0.203125 0.921875
vt 0.203125 0.859375
vt 0.4453125 0.890625
vt 0.4453125 0.93481921875
vt 0.40703953125 0.9127225
vt 0.203125 0.5
vt 0.25 0.5
vt 0.25 0.5625
vt 0.203125 0.5625
vt 0 0.609375
vt 0.1875 0.609375
vt 0.1875 0.796875
vt 0 0.796875
vt 0.2421875 0.625
vt 0.20391453125 0.6029025
vt 0.2421875 0.58080578125
vt 0.6328125 0.953125
vt 0.67108546875 0.9752225
vt 0.6328125 0.99731921875
vt 0.6328125 0.890625
vt 0.67108546875 0.9127225
vt 0.6328125 0.93481921875
vt 0.4296875 0.625
vt 0.4296875 0.58080578125
vt 0.46796046875 0.6029025
vt 0.2421875 0.6875
vt 0.20391453125 0.6654025
vt 0.2421875 0.64330578125
vt 0.40625 0.703125
vt 0.59375 0.703125
vt 0.59375 0.75
vt 0.40625 0.75
vt 0.4453125 0.953125
vt 0.6328125 0.953125
vt 0.6328125 0.99731875
vt 0.4453125 0.99731875
vn 0.5773502691896258 0.5773502691896258 0.5773502691896258
vn 0.7071067811865476 0 0.7071067811865476
vn -0.7071067811865476 0 0.7071067811865476
vn 0.7071067811865476 -0.7071067811865476 0
vn 0 1 0
vn -0.7071067811865476 0.7071067811865476 0
vn -0.5773502691896258 -0.5773502691896258 0.5773502691896258
vn 0 0.7071067811865476 0.7071067811865476
vn 0 0 1
vn -0.7071067811865476 0 -0.7071067811865476
vn 1 0 0
vn 0 0 -1
vn 0.7071067811865476 0.7071067811865476 0
vn 0 0.7071067811865476 -0.7071067811865476
vn 0 -0.7071067811865476 -0.7071067811865476
vn -1 0 0
vn 0.5773502691896258 -0.5773502691896258 -0.5773502691896258
vn 0.7071067811865476 0 -0.7071067811865476
vn 0 -1 0
vn 0.5773502691896258 0.5773502691896258 -0.5773502691896258
vn 0.5773502691896258 -0.5773502691896258 0.5773502691896258
vn -0.5773502691896258 -0.5773502691896258 -0.5773502691896258
vn -0.5773502691896258 0.5773502691896258 -0.5773502691896258
vn -0.5773502691896258 0.5773502691896258 0.5773502691896258
vn -0.7071067811865476 -0.7071067811865476 0
vn 0 -0.7071067811865476 0.7071067811865476
usemtl m_a4bfa354-e751-6b8d-10a5-d80fc0096539
f 3/1/1 4/2/1 23/3/1
f 4/4/2 24/5/2 9/6/2 23/7/2
f 16/8/3 18/9/3 17/10/3 13/11/3
f 9/12/4 19/13/4 8/14/4 1/15/4
f 3/16/5 2/17/5 12/18/5 11/19/5
f 13/20/6 11/21/6 12/22/6 14/23/6
f 10/24/7 18/25/7 16/26/7
f 4/27/8 3/28/8 11/29/8 17/30/8
f 24/31/9 4/32/9 17/33/9 18/34/9
f 21/35/10 7/36/10 6/37/10 14/38/10
f 20/39/11 23/40/11 9/41/11 1/42/11
f 21/43/12 5/44/12 15/45/12 7/46/12
f 2/47/13 3/48/13 23/49/13 20/50/13
f 12/51/14 2/52/14 5/53/14 21/54/14
f 15/55/15 8/56/15 22/57/15 7/58/15
f 16/59/16 13/60/16 14/61/16 6/62/16
f 8/63/17 15/64/17 1/65/17
f 1/66/18 15/67/18 5/68/18 20/69/18
f 22/70/19 8/71/19 19/72/19 10/73/19
f 2/74/20 20/75/20 5/76/20
f 19/77/21 9/78/21 24/79/21
f 22/80/22 6/81/22 7/82/22
f 12/83/23 21/84/23 14/85/23
f 11/86/24 13/87/24 17/88/24
f 22/89/25 10/90/25 16/91/25 6/92/25
f 10/93/26 19/94/26 24/95/26 18/96/26
o 784aec2b-e35b-a471-8c07-957d93051f56
v 0 0 0
v 0.1875 0.13750000204890966 0.1875
v -0.1875 0.13750000204890966 0.1875
v 0.1875 0.13750000204890966 -0.1875
v 0 0 0
v -0.1875 0.13750000204890966 -0.1875
v 0.1875 0.13750000204890966 0.1875
v 0 0 0
v 0.1875 0.13750000204890966 -0.1875
v 0 0 0
v -0.1875 0.13750000204890966 0.1875
v -0.1875 0.13750000204890966 -0.1875
v 0.1875 0.13750000204890966 0.1875
v 0 0.6875 0
v -0.1875 0.13750000204890966 0.1875
v 0 0.6875 0
v 0.1875 0.13750000204890966 -0.1875
v -0.1875 0.13750000204890966 -0.1875
v 0 0.6875 0
v 0.1875 0.13750000204890966 0.1875
v 0.1875 0.13750000204890966 -0.1875
v -0.1875 0.13750000204890966 0.1875
v 0 0.6875 0
v -0.1875 0.13750000204890966 -0.1875
vn 0 -0.3226739277881386 0.9465101881785399
vn 0 -0.3226739277881386 0.9465101881785399
vn 0 -0.3226739277881386 0.9465101881785399
vn 0 -0.3226739277881386 -0.9465101881785399
vn 0 -0.3226739277881386 -0.9465101881785399
vn 0 -0.3226739277881386 -0.9465101881785399
vn 0.9465101881785399 -0.3226739277881386 0
vn 0.9465101881785399 -0.3226739277881386 0
vn 0.9465101881785399 -0.3226739277881386 0
vn -0.9465101881785399 -0.3226739277881386 0
vn -0.9465101881785399 -0.3226739277881386 0
vn -0.9465101881785399 -0.3226739277881386 0
vn 0 0.09053574322170442 0.9958932067241415
vn 0 0.09053574322170442 0.9958932067241415
vn 0 0.09053574322170442 0.9958932067241415
vn 0 0.09053574322170442 -0.9958932067241415
vn 0 0.09053574322170442 -0.9958932067241415
vn 0 0.09053574322170442 -0.9958932067241415
vn 0.9958932067241415 0.09053574322170442 0
vn 0.9958932067241415 0.09053574322170442 0
vn 0.9958932067241415 0.09053574322170442 0
vn -0.9958932067241415 0.09053574322170442 0
vn -0.9958932067241415 0.09053574322170442 0
vn -0.9958932067241415 0.09053574322170442 0
f 25//27 26//28 27//29
f 28//30 29//31 30//32
f 31//33 32//34 33//35
f 34//36 35//37 36//38
f 37//39 38//40 39//41
f 40//42 41//43 42//44
f 43//45 44//46 45//47
f 46//48 47//49 48//50